<?xml version="1.0" standalone="no"?>
<!DOCTYPE svg PUBLIC "-//W3C//DTD SVG 20010904//EN"
 "http://www.w3.org/TR/2001/REC-SVG-20010904/DTD/svg10.dtd">
<svg version="1.0" xmlns="http://www.w3.org/2000/svg"
 width="115.000000pt" height="115.000000pt" viewBox="0 0 115.000000 115.000000"
 preserveAspectRatio="xMidYMid meet">
<g transform="translate(0.000000,115.000000) scale(0.100000,-0.100000)"
fill="#ab0420">
<path d="M172 1138 c-5 -7 -21 -37 -36 -65 l-26 -53 -55 0 c-48 0 -55 -2 -55
-20 0 -17 7 -20 46 -20 38 0 45 -3 40 -17 -23 -79 -28 -126 -24 -229 l5 -114
-33 0 c-27 0 -34 -4 -34 -20 0 -17 7 -20 40 -20 l39 0 41 -84 c49 -101 128
-191 212 -243 l62 -38 -197 -3 c-189 -2 -197 -3 -197 -22 0 -20 8 -20 370 -20
l370 0 0 -85 0 -85 35 0 35 0 0 85 0 85 170 0 c163 0 170 1 170 20 0 18 -8 20
-151 22 l-152 3 51 33 c95 62 175 181 188 285 6 44 9 47 35 47 22 0 29 5 29
20 0 15 -7 20 -28 20 -27 0 -29 4 -39 59 -21 113 -96 227 -185 281 l-33 20
143 0 c135 0 142 1 142 20 0 19 -7 20 -245 20 l-244 0 -10 38 c-5 20 -13 49
-17 65 -5 23 -11 27 -40 27 -39 0 -40 -3 -20 -77 l14 -53 -145 0 c-165 0 -154
-10 -85 85 l33 45 -104 0 c-72 0 -108 -4 -115 -12z m286 -191 c-81 -61 -139
-196 -124 -289 l6 -38 -86 0 -87 0 7 65 c8 75 38 180 72 248 l24 47 116 0 116
0 -44 -33z m186 -179 c9 -40 19 -90 23 -110 l6 -38 -122 0 -121 0 0 38 c0 43
34 107 71 134 25 19 93 47 115 48 7 0 19 -33 28 -72z m161 40 c69 -34 155
-133 155 -178 0 -6 -40 -10 -109 -10 l-108 0 -17 88 c-10 48 -20 98 -23 111
-5 22 -4 23 28 16 19 -4 52 -16 74 -27z m-432 -271 c28 -48 103 -121 142 -139
19 -8 28 -8 40 2 24 20 19 29 -45 89 -89 84 -85 91 54 91 101 0 115 -2 120
-17 5 -19 46 -284 46 -301 0 -15 -129 -23 -195 -12 -160 26 -314 159 -351 304
l-6 26 85 0 85 0 25 -43z m604 27 c3 -9 1 -44 -5 -77 -13 -70 -63 -149 -114
-184 -59 -39 -59 -39 -79 97 -10 69 -21 137 -25 153 l-6 27 112 0 c93 0 112
-3 117 -16z"/>
</g>
</svg>
